# xmcd
#
# Track frame offsets:
#	150
#	15411
#	46363
#	73462
#	95897
#	114737
#	128553
#	144724
#	158243
#	177846
#	193042
#	211373
#	231119
#	247290
#	266079
#
# Disc length: 3898 seconds
#
# Revision: 1
# Processed by: cddbd v1.5.2PL0 Copyright (c) Steve Scherf et al.
# Submitted via: audiograbber 1.83.01
#
DISCID=e70f380f
DTITLE=Tom Petty - Mojo  USA
DYEAR=2010
DGENRE=Blues\Rock*
TTITLE0=Jefferson Jericho Blues
TTITLE1=First Flash of Freedom
TTITLE2=Running Man's Bible
TTITLE3=The Trip to Pirate's Cove
TTITLE4=Candy
TTITLE5=No Reason To Cry
TTITLE6=I Should Have Known It
TTITLE7=U.S. 41
TTITLE8=Takin' My Time
TTITLE9=Let Yourself Go
TTITLE10=Don't Pull Me Over
TTITLE11=Lover's Touch
TTITLE12=High in the Morning
TTITLE13=Something Good Coming
TTITLE14=Good Enough
EXTD=
EXTT0=
EXTT1=
EXTT2=
EXTT3=
EXTT4=
EXTT5=
EXTT6=
EXTT7=
EXTT8=
EXTT9=
EXTT10=
EXTT11=
EXTT12=
EXTT13=
EXTT14=
PLAYORDER=
